<?xml version="1.0" encoding="UTF-8"?>
<svg version="1.1" xmlns="http://www.w3.org/2000/svg" width="318" height="329">
<path d="M0 0 C104.94 0 209.88 0 318 0 C318 108.57 318 217.14 318 329 C213.06 329 108.12 329 0 329 C0 220.43 0 111.86 0 0 Z " fill="#F8DF64" transform="translate(0,0)"/>
<path d="M0 0 C104.94 0 209.88 0 318 0 C318 108.57 318 217.14 318 329 C213.06 329 108.12 329 0 329 C0 220.43 0 111.86 0 0 Z M180.72470093 8.75256348 C178.86567894 9.33631996 178.86567894 9.33631996 176.96910095 9.93186951 C175.6087084 10.3690233 174.24840556 10.80645635 172.88818359 11.24414062 C171.44571185 11.70150293 170.00305446 12.15828009 168.56022644 12.61451721 C163.83475058 14.11336139 159.11589138 15.6323695 154.3984375 17.15625 C153.59453473 17.4158935 152.79063195 17.67553699 151.96236849 17.94304848 C144.37589334 20.39531278 136.79254712 22.85708987 129.21520042 25.33742523 C119.53902235 28.50386932 109.85087209 31.62577417 100.14170396 34.68961763 C93.30582633 36.85086467 86.48756461 39.06261885 79.68017638 41.31196928 C75.61761336 42.65279174 71.55070753 43.97034326 67.46332932 45.23371887 C63.61618191 46.42395876 59.79478725 47.67573251 55.98368263 48.97660637 C54.58672799 49.44142005 53.1821014 49.88390599 51.77025795 50.30131721 C44.29133411 52.3903235 44.29133411 52.3903235 39.05694246 57.72521019 C37.55621717 61.72157517 36.82539982 65.79194903 36.27402043 70.01225376 C35.84126201 73.15148654 35.14822374 76.22228547 34.484375 79.3203125 C34.11778636 81.2080958 33.75129548 83.09590126 33.38891602 84.98449707 C32.67626601 88.67770616 31.93771318 92.36579131 31.203125 96.0546875 C31.04685135 96.84119186 30.8905777 97.62769623 30.72956848 98.43803406 C27.54266714 114.47619949 24.29620937 130.49782064 20.87371826 146.48745728 C18.76687859 156.33145343 16.72986399 166.18636947 14.78369141 176.06347656 C13.75511423 181.27252821 12.69436189 186.47218204 11.58203125 191.6640625 C11.23229248 193.30362915 11.23229248 193.30362915 10.87548828 194.97631836 C10.42984035 197.05637771 9.97930355 199.13539809 9.52294922 201.21313477 C7.88103207 208.06530145 7.88103207 208.06530145 8 215 C10.10565123 217.65237213 10.10565123 217.65237213 13 219.9375 C13.50329834 220.36861084 14.00659668 220.79972168 14.52514648 221.24389648 C16.00546372 222.50927194 17.50247073 223.75504207 19 225 C20.35773692 226.18341627 21.71237946 227.37040179 23.0625 228.5625 C24.00802734 229.38427734 24.00802734 229.38427734 24.97265625 230.22265625 C27.33489173 232.29359487 29.66795853 234.39512848 32 236.5 C38.58022939 242.43530645 45.26211791 248.24472571 52 254 C50.61114393 257.16608791 49.00972255 259.18063806 46.48828125 261.53125 C45.81345703 262.17707031 45.13863281 262.82289063 44.44335938 263.48828125 C43.01657834 264.83528809 41.58421507 266.1764053 40.14648438 267.51171875 C39.14004883 268.48044922 39.14004883 268.48044922 38.11328125 269.46875 C37.49235596 270.05076172 36.87143066 270.63277344 36.23168945 271.23242188 C34.73748505 272.9508065 34.73748505 272.9508065 35.30541992 275.22070312 C35.64923706 276.10145508 35.64923706 276.10145508 36 277 C40.51255925 276.95808768 42.65903993 275.68516573 45.7265625 272.5859375 C47.03885941 271.1942678 48.33804506 269.7901377 49.625 268.375 C50.91766371 266.95510561 52.22187706 265.54561396 53.5390625 264.1484375 C54.10834473 263.52114746 54.67762695 262.89385742 55.26416016 262.24755859 C57 261 57 261 59.04541016 261.16210938 C62.14498952 262.49083238 64.35351212 264.81673573 66.75 267.125 C67.82488086 268.13609744 68.90040175 269.14651491 69.9765625 270.15625 C70.49637695 270.64738281 71.01619141 271.13851563 71.55175781 271.64453125 C73.37246646 273.3486065 75.23931631 274.99330636 77.125 276.625 C80.11397458 279.21709829 83.06321535 281.84886006 86 284.5 C89.61615223 287.76335689 93.26082556 290.98874156 96.9375 294.18359375 C99.31883716 296.28079409 101.6567516 298.42285703 104 300.5625 C107.61127087 303.82984031 111.31285983 306.80156849 115.25390625 309.65625 C117.71821723 311.55272199 119.80398285 313.80398285 122 316 C124.16620544 317.29519995 124.16620544 317.29519995 126 318 C126 318.66 126 319.32 126 320 C134.11475433 319.49153074 141.49790705 316.67963768 149.125 314.0625 C150.66296787 313.54083798 152.20122614 313.02003151 153.73974609 312.5 C156.27416711 311.64328761 158.8083733 310.78598402 161.34170532 309.92605591 C168.89404508 307.36442539 176.46103708 304.84810031 184.03125 302.33984375 C186.46729557 301.53185106 188.9033307 300.7238269 191.33935547 299.91577148 C194.96529765 298.71312908 198.59143669 297.51110292 202.21832275 296.31130981 C205.63870579 295.17918868 209.05775717 294.04312523 212.4765625 292.90625 C213.4919812 292.57120956 214.5073999 292.23616913 215.55358887 291.89097595 C221.04830853 290.0597371 226.44167832 288.08507512 231.79342651 285.86889648 C235.29135241 284.49149594 238.8791046 283.49695377 242.5 282.5 C247.85557111 280.97690398 252.98019733 279.29228505 258.109375 277.11328125 C265.26377933 274.35786877 272.67595452 272.25586616 280 270 C280.19335938 268.99839844 280.38671875 267.99679687 280.5859375 266.96484375 C280.84880049 265.62236492 281.11183026 264.27991873 281.375 262.9375 C281.50132812 262.28072266 281.62765625 261.62394531 281.7578125 260.94726562 C282.39776455 257.69950899 283.12525508 254.56512564 284.04296875 251.37890625 C284.93453192 248.2311424 285.49495742 245.23688286 285.9375 242 C286.84460474 235.79311798 288.01686339 229.66748749 289.27734375 223.5234375 C289.89768491 220.4988552 290.48417682 217.47028138 291.0625 214.4375 C291.57291955 211.86431052 292.15154035 209.55485023 293 207.0625 C294.80304942 201.54066116 295.56433438 195.77141912 296.46484375 190.04296875 C297.25198498 185.07942529 298.15045933 180.23491919 299.4375 175.375 C300.99921187 169.41210013 301.9929737 163.40716693 302.90991211 157.31787109 C303.40279076 154.14231937 303.92698007 151.21549785 304.9609375 148.1640625 C306.50824674 143.45233136 307.23616072 138.63262829 308.0625 133.75 C308.23587891 132.76386719 308.40925781 131.77773437 308.58789062 130.76171875 C309.08938348 127.84499019 309.55670185 124.92611628 310 122 C310.21233276 120.59862793 310.21233276 120.59862793 310.42895508 119.16894531 C310.54263428 118.28819336 310.65631348 117.40744141 310.7734375 116.5 C310.8770459 115.72140625 310.9806543 114.9428125 311.08740234 114.140625 C310.94717478 110.7062247 309.22103035 108.89952994 306.84765625 106.55859375 C304.45538358 104.54058784 301.99572204 102.66820894 299.453125 100.84375 C296.27606005 98.45589227 293.26517833 95.90026903 290.25 93.3125 C289.65348633 92.80082275 289.05697266 92.28914551 288.44238281 91.76196289 C283.76689283 87.72147027 279.2037151 83.56647657 274.73144531 79.30200195 C272.28459482 76.73494974 272.28459482 76.73494974 269 76 C269 75.34 269 74.68 269 74 C267.37373596 72.61767557 265.7074998 71.28062485 264 70 C265.3488982 66.99088776 266.85165713 64.90083637 269.1875 62.58203125 C269.80367188 61.96779297 270.41984375 61.35355469 271.0546875 60.72070312 C271.69664062 60.09099609 272.33859375 59.46128906 273 58.8125 C273.96292969 57.85053711 273.96292969 57.85053711 274.9453125 56.86914062 C279.71878332 52.14060834 279.71878332 52.14060834 282 51 C281.67 49.35 281.34 47.7 281 46 C278.71163778 45.58013054 278.71163778 45.58013054 276 46 C274.26839042 47.59908844 272.61338265 49.28170085 271 51 C268.98932304 53.13489644 266.96607413 55.25711757 264.9375 57.375 C264.42123047 57.93316406 263.90496094 58.49132813 263.37304688 59.06640625 C259.57047544 62.99007869 259.57047544 62.99007869 256.75390625 63.0390625 C255 62 255 62 253 59 C251.33720673 57.9935725 249.67016516 56.99414593 248 56 C246.66666667 54.66666667 245.33333333 53.33333333 244 52 C243.34 52 242.68 52 242 52 C242 51.34 242 50.68 242 50 C240.55316948 48.49726114 240.55316948 48.49726114 238.625 46.9375 C235.42453655 44.22076214 232.28693937 41.45664781 229.1875 38.625 C225.64839998 35.42347567 222.02896894 32.36853937 218.3125 29.375 C214.59601825 26.37062734 211.20388977 23.27022125 207.89453125 19.83203125 C204.57991967 16.62676768 200.95104459 13.79938884 197.35546875 10.91796875 C195 9 195 9 193 7 C188.53770959 6.61703505 184.9645096 7.40726087 180.72470093 8.75256348 Z " fill="#FDFDFD" transform="translate(0,0)"/>
<path d="M0 0 C2.7109375 1.94140625 2.7109375 1.94140625 5.375 4.5625 C6.33924578 5.49020526 7.30409261 6.41728618 8.26953125 7.34375 C9.62111328 8.65859375 9.62111328 8.65859375 11 10 C12.34397997 11.19901687 13.69696794 12.38808703 15.0625 13.5625 C18.07073528 16.17701942 21.04130249 18.82951656 24 21.5 C27.60859396 24.75653601 31.24586949 27.97498042 34.9140625 31.1640625 C38.28035988 34.12690851 41.58723222 37.15552169 44.8984375 40.1796875 C46.86723421 42.03676667 46.86723421 42.03676667 49 43 C49 43.66 49 44.32 49 45 C49.5775 45.2475 50.155 45.495 50.75 45.75 C53.29879381 47.16599656 54.94723215 48.94723215 57 51 C57.99 51.33 58.98 51.66 60 52 C61.6875 54.0625 61.6875 54.0625 63 56 C67.5640036 55.1509827 69.89635713 52.44094741 73 49.1875 C73.52078125 48.65318359 74.0415625 48.11886719 74.578125 47.56835938 C76.81100568 45.27627353 79.02487512 42.97322837 81.203125 40.62890625 C83 39 83 39 85.75 38.75 C86.4925 38.8325 87.235 38.915 88 39 C88.33 40.65 88.66 42.3 89 44 C88.53851563 44.38929687 88.07703125 44.77859375 87.6015625 45.1796875 C81.77863353 50.1740574 76.37292078 55.52798847 71 61 C72.36983503 64.16115776 72.9890638 64.9927092 76 67 C76 67.66 76 68.32 76 69 C76.80630859 69.32677734 76.80630859 69.32677734 77.62890625 69.66015625 C80.82730952 71.46749121 83.30111036 73.91570152 85.9375 76.4375 C90.51408504 80.7359428 95.14958468 84.9376321 99.9375 89 C100.45626709 89.44400146 100.97503418 89.88800293 101.50952148 90.34545898 C104.85459447 93.16539264 108.35906994 95.58274341 112 98 C114.56733039 100.08498347 116.39754723 102.09790967 118 105 C118.09521484 107.17480469 118.09521484 107.17480469 117.7734375 109.546875 C117.65830811 110.42811035 117.54317871 111.3093457 117.42456055 112.21728516 C117.28445557 113.13558105 117.14435059 114.05387695 117 115 C116.86698486 115.89380371 116.73396973 116.78760742 116.59692383 117.70849609 C116.15630002 120.51976124 115.67928219 123.32224519 115.1875 126.125 C114.9246521 127.63549927 114.9246521 127.63549927 114.65649414 129.17651367 C113.62433615 134.95263746 112.4382221 140.64068529 110.9375 146.3125 C108.86992681 154.15306186 107.5797861 162.04506457 106.31591797 170.04833984 C105.27017214 176.50868927 103.79699668 182.71051164 102 189 C100.8209278 194.2597674 99.9044113 199.55217235 99.0625 204.875 C98.0611783 211.01696538 96.55769986 216.97970055 95 223 C93.68614636 228.24635348 92.77912311 233.44957457 92.0625 238.8125 C91.29269043 244.45777021 90.15618487 249.87767205 88.68359375 255.37890625 C88.02413194 257.90747125 87.50181181 260.43628552 87 263 C86.19892822 263.25692627 85.39785645 263.51385254 84.57250977 263.77856445 C81.55870772 264.74544455 78.54505357 265.71278394 75.53149414 266.68041992 C74.23500241 267.09661547 72.93845436 267.51263565 71.6418457 267.9284668 C65.10087595 270.02632317 58.56220071 272.12785006 52.05004883 274.3137207 C49.88129356 275.03973845 47.70867302 275.75321547 45.53515625 276.46484375 C44.42817383 276.82932617 44.42817383 276.82932617 43.29882812 277.20117188 C41.81262539 277.69051548 40.32564733 278.17751084 38.83789062 278.66210938 C35.0444814 279.91555497 31.32491796 281.2569608 27.63427734 282.7878418 C20.94022622 285.47925174 14.09912563 287.72333209 7.25390625 289.9921875 C5.83390593 290.465122 4.41398051 290.93828144 2.99412537 291.41165161 C0.0270539 292.40015691 -2.94067194 293.3866624 -5.90893555 294.37158203 C-9.65480413 295.61458668 -13.39935915 296.86149194 -17.14349937 298.10969162 C-26.08958006 301.09167998 -35.04145383 304.05567168 -44 307 C-45.60745087 307.52865662 -45.60745087 307.52865662 -47.24737549 308.06799316 C-49.94507863 308.95140245 -52.64538997 309.82597884 -55.34765625 310.6953125 C-56.09164169 310.93885468 -56.83562714 311.18239685 -57.60215759 311.43331909 C-60.94827522 312.49650845 -63.44149193 313 -67 313 C-67 312.34 -67 311.68 -67 311 C-67.56460938 310.75378906 -68.12921875 310.50757813 -68.7109375 310.25390625 C-71.39895928 308.78145746 -73.37317156 307.01695721 -75.625 304.9375 C-76.5015625 304.13441406 -77.378125 303.33132813 -78.28125 302.50390625 C-79.1784375 301.67761719 -80.075625 300.85132813 -81 300 C-82.70605611 298.45581367 -84.41433079 296.91407431 -86.125 295.375 C-86.95257813 294.62992187 -87.78015625 293.88484375 -88.6328125 293.1171875 C-91.38118628 290.65907101 -94.15705224 288.2341803 -96.9375 285.8125 C-100.17375077 282.96852205 -103.36408668 280.07387299 -106.5625 277.1875 C-109.32876184 274.70495732 -112.12619698 272.26059777 -114.9296875 269.8203125 C-117.34827961 267.6937768 -119.73653963 265.53530894 -122.125 263.375 C-123.38570312 262.24578125 -123.38570312 262.24578125 -124.671875 261.09375 C-126.06973374 259.8366153 -127.45842247 258.56900451 -128.828125 257.28125 C-130.48930147 255.71585765 -130.48930147 255.71585765 -133 254 C-136.4098734 254.32596251 -137.97523788 255.65372709 -140.2421875 258.125 C-140.83386719 258.74890625 -141.42554688 259.3728125 -142.03515625 260.015625 C-143.25811354 261.33465325 -144.47690085 262.6575605 -145.69140625 263.984375 C-149.27781982 267.74972026 -151.51722841 269.86586492 -157 270 C-157.72631836 268.25683594 -157.72631836 268.25683594 -158 266 C-156.55297852 263.98535156 -156.55297852 263.98535156 -154.37890625 261.890625 C-153.60869141 261.13652344 -152.83847656 260.38242187 -152.04492188 259.60546875 C-151.22572266 258.82816406 -150.40652344 258.05085938 -149.5625 257.25 C-148.74716797 256.45722656 -147.93183594 255.66445313 -147.09179688 254.84765625 C-145.07189608 252.88681688 -143.04127872 250.9385351 -141 249 C-142.7452436 245.23504123 -144.82189343 243.08838476 -147.9375 240.3125 C-149.41283203 238.99765625 -149.41283203 238.99765625 -150.91796875 237.65625 C-154.69830118 234.3671337 -158.60502558 231.23659992 -162.50390625 228.08984375 C-165.28026476 225.76534954 -167.80122712 223.29102784 -170.31640625 220.69140625 C-172.18582607 218.81331163 -174.13291846 217.0597447 -176.125 215.3125 C-176.78628906 214.72726563 -177.44757813 214.14203125 -178.12890625 213.5390625 C-180.110567 211.82888318 -180.110567 211.82888318 -183.0625 210.1875 C-185 208 -185 208 -184.85546875 204.01953125 C-183.95253934 196.62426734 -182.32959594 189.34764619 -180.79141235 182.06396484 C-179.87012943 177.70104811 -178.96504714 173.33476752 -178.05859375 168.96875 C-177.87898605 168.10564209 -177.69937836 167.24253418 -177.514328 166.35327148 C-176.04017194 159.24875778 -174.65515652 152.13061717 -173.3125 145 C-171.66482642 136.28590975 -169.86283642 127.61923872 -167.94458008 118.9609375 C-166.18965024 110.99452456 -164.58356434 103.00206996 -163 95 C-161.15534603 85.6920478 -159.26728143 76.39720322 -157.25 67.125 C-157.05148438 66.21105469 -156.85296875 65.29710938 -156.6484375 64.35546875 C-156.10950206 61.90072858 -155.56865625 59.44804167 -155 57 C-154.9388501 55.7390451 -154.8777002 54.47809021 -154.81469727 53.17892456 C-153.99911306 50.03158658 -153.31225 49.1876869 -150.48649216 47.48918343 C-146.82928994 46.02123972 -143.12898192 44.7793595 -139.37402344 43.59375 C-137.934265 43.11262462 -136.49546661 42.62861811 -135.05757141 42.14195251 C-131.15159618 40.82931074 -127.23323876 39.5581009 -123.31122494 38.29432297 C-119.20791114 36.96497718 -115.11660744 35.59962713 -111.02374268 34.23852539 C-104.14742803 31.95748041 -97.26342336 29.70111913 -90.37353516 27.46142578 C-81.53513296 24.58822083 -72.709905 21.67661057 -63.88842392 18.75192261 C-56.30010448 16.23621912 -48.70658299 13.73636016 -41.11187458 11.24002075 C-38.6731939 10.43793379 -36.23510976 9.63405161 -33.79705048 8.83007812 C-29.96198685 7.56673127 -26.12382468 6.31326221 -22.28307152 5.06732368 C-20.87521514 4.60918672 -19.46832507 4.14806773 -18.06250191 3.68372917 C-16.14064991 3.04961837 -14.21478418 2.42771134 -12.28875732 1.80639648 C-11.21285717 1.45544418 -10.13695702 1.10449188 -9.02845383 0.74290466 C-5.85587008 -0.03535626 -3.25263995 -0.27441816 0 0 Z M-14.08496094 5.44677734 C-14.87266373 5.70691116 -15.66036652 5.96704498 -16.47193909 6.23506165 C-19.06245263 7.09318276 -21.64841346 7.96420403 -24.234375 8.8359375 C-26.03684387 9.43710633 -27.83952041 10.03765283 -29.64239502 10.63760376 C-33.41341953 11.89467165 -37.18230412 13.15790196 -40.94970703 14.42578125 C-45.78417074 16.05242602 -50.62297215 17.6656835 -55.46334457 19.27464867 C-59.1828272 20.51225184 -62.90029281 21.75582035 -66.61713409 23.00133133 C-68.40123207 23.59860001 -70.18587464 24.19424443 -71.97106171 24.78824997 C-74.46027648 25.61774172 -76.94675301 26.4549628 -79.43261719 27.29443359 C-80.17341019 27.53971298 -80.91420319 27.78499237 -81.67744446 28.03770447 C-85.70109913 29.39661884 -85.70109913 29.39661884 -89 32 C-90.8972168 32.47680664 -90.8972168 32.47680664 -93.26171875 32.84765625 C-99.98654125 34.08672565 -106.34414348 36.25315047 -112.8125 38.4375 C-114.01326172 38.83259766 -115.21402344 39.22769531 -116.45117188 39.63476562 C-117.60810547 40.02212891 -118.76503906 40.40949219 -119.95703125 40.80859375 C-120.99835205 41.15720459 -122.03967285 41.50581543 -123.11254883 41.86499023 C-125.97260075 42.9892298 -128.40426266 44.3669798 -131 46 C-136.47653709 48.28612402 -142.08148959 49.49581064 -147.93359375 50.375 C-150.37560514 50.87459147 -150.37560514 50.87459147 -152 54 C-152.50941776 55.90564202 -152.50941776 55.90564202 -152.78125 57.984375 C-152.90113281 58.75523438 -153.02101563 59.52609375 -153.14453125 60.3203125 C-153.26183594 61.12210938 -153.37914062 61.92390625 -153.5 62.75 C-154.3315684 68.32424973 -155.41515739 73.57911788 -157 79 C-157.72647158 82.21753416 -158.36573313 85.45067907 -159 88.6875 C-159.2638147 90.01587891 -159.2638147 90.01587891 -159.53295898 91.37109375 C-160.45736259 96.06996651 -161.31680006 100.76887855 -162.0625 105.5 C-162.83668887 110.35565827 -163.98060843 115.05151589 -165.21484375 119.80859375 C-166.38853152 124.57925499 -167.30836704 129.39387915 -168.25 134.21484375 C-168.96016739 137.79896978 -169.72030137 141.36794222 -170.5 144.9375 C-172.45357377 153.9931284 -174.18334569 163.0940009 -175.71484375 172.23046875 C-177.15964649 180.79349623 -178.94466884 189.13045242 -181.23046875 197.51171875 C-181.96557892 200.8439694 -182.28576388 203.60532221 -182 207 C-180.31167984 209.4391141 -180.31167984 209.4391141 -178 211 C-177.01 211 -176.02 211 -175 211 C-175 211.99 -175 212.98 -175 214 C-171.14059553 217.95992993 -171.14059553 217.95992993 -166 219 C-166 219.66 -166 220.32 -166 221 C-164.51573767 222.58191818 -164.51573767 222.58191818 -162.625 224.125 C-161.99851563 224.66382813 -161.37203125 225.20265625 -160.7265625 225.7578125 C-159.08391572 227.19467147 -159.08391572 227.19467147 -157 227 C-157 227.66 -157 228.32 -157 229 C-156.34 229 -155.68 229 -155 229 C-154.773125 229.5775 -154.54625 230.155 -154.3125 230.75 C-152.65151778 233.59739809 -150.68475439 235.12067193 -148 237 C-147.34 237 -146.68 237 -146 237 C-145.7525 237.61875 -145.505 238.2375 -145.25 238.875 C-143.76045906 241.4072196 -142.62418952 241.80718658 -140 243 C-138.97818975 243.97770333 -137.97469546 244.97532016 -137 246 C-134.37449113 243.54220967 -131.74968042 241.08367499 -129.125 238.625 C-128.37863281 237.92632812 -127.63226563 237.22765625 -126.86328125 236.5078125 C-125.79013672 235.50234375 -125.79013672 235.50234375 -124.6953125 234.4765625 C-124.03547363 233.85861816 -123.37563477 233.24067383 -122.69580078 232.60400391 C-121.44570602 231.42157912 -120.21673031 230.21673031 -119 229 C-117.68 229 -116.36 229 -115 229 C-115.47764741 233.29882672 -117.98635566 235.08570657 -121 238 C-122.03974371 239.03577333 -123.07744469 240.07360054 -124.11328125 241.11328125 C-127.07552083 244.07552083 -130.03776042 247.03776042 -133 250 C-132.54753906 250.44988281 -132.09507812 250.89976562 -131.62890625 251.36328125 C-130.37910722 252.61907452 -129.15292709 253.89841066 -127.9375 255.1875 C-126.19876339 257.22771904 -126.19876339 257.22771904 -124 257 C-123.67 257.99 -123.34 258.98 -123 260 C-121.37831888 261.68215965 -121.37831888 261.68215965 -119.375 263.3125 C-118.65828125 263.91835938 -117.9415625 264.52421875 -117.203125 265.1484375 C-116.11257812 266.06496094 -116.11257812 266.06496094 -115 267 C-114.33484375 267.59039062 -113.6696875 268.18078125 -112.984375 268.7890625 C-112.37078125 269.33304687 -111.7571875 269.87703125 -111.125 270.4375 C-110.57070312 270.93121094 -110.01640625 271.42492187 -109.4453125 271.93359375 C-108.03113379 273.19790607 -108.03113379 273.19790607 -106 273 C-105.505 274.485 -105.505 274.485 -105 276 C-103.61682135 277.48000198 -103.61682135 277.48000198 -101.8125 278.9375 C-100.74902344 279.84048828 -100.74902344 279.84048828 -99.6640625 280.76171875 C-98.78492187 281.50035156 -97.90578125 282.23898437 -97 283 C-95.19048815 284.54083935 -93.3841298 286.08529952 -91.57885742 287.63110352 C-90.33323912 288.69728332 -89.0860432 289.76162317 -87.8371582 290.82397461 C-87.25538818 291.32034424 -86.67361816 291.81671387 -86.07421875 292.328125 C-85.55432373 292.7705957 -85.03442871 293.21306641 -84.4987793 293.66894531 C-83 295 -83 295 -81.49536133 296.60449219 C-79.93808087 298.2517903 -79.93808087 298.2517903 -77 299 C-75.37995767 300.72129497 -73.96124214 302.54925478 -72.5 304.40625 C-70.98483163 306.26844491 -70.98483163 306.26844491 -68 307 C-67.01 308.485 -67.01 308.485 -66 310 C-62.08888117 310.67047751 -59.46169233 309.36673042 -55.92269897 307.80905151 C-52.84331536 306.51327926 -49.6699984 305.51263009 -46.48828125 304.50390625 C-45.77654251 304.27501709 -45.06480377 304.04612793 -44.33149719 303.81030273 C-42.79730237 303.31708783 -41.26265512 302.82527844 -39.7276001 302.33474731 C-35.52796546 300.991881 -31.33248562 299.63614337 -27.13671875 298.28125 C-26.27622925 298.00358292 -25.41573975 297.72591583 -24.5291748 297.43983459 C-15.14134373 294.406651 -5.78221862 291.28976359 3.57275391 288.15698242 C5.08625542 287.65020518 6.59976486 287.14345157 8.11328125 286.63671875 C9.30328735 286.2381794 9.30328735 286.2381794 10.51733398 285.83158875 C17.29403649 283.56464297 24.07685855 281.31632017 30.86065674 279.07072449 C35.91436043 277.39776324 40.96699441 275.72158114 46.01943207 274.04480076 C49.64775148 272.84087232 53.27660318 271.63860035 56.90667725 270.43997192 C60.3544733 269.30147339 63.80082815 268.15871273 67.24617958 267.01283836 C69.15448749 266.37944141 71.06431416 265.7506261 72.97416687 265.12190247 C74.12037003 264.73991196 75.26657318 264.35792145 76.44750977 263.96435547 C77.45145279 263.63192841 78.45539581 263.29950134 79.48976135 262.95700073 C82.18895663 262.03429764 82.18895663 262.03429764 85 260 C85.84816957 257.40352299 85.84816957 257.40352299 86.31640625 254.328125 C86.52330078 253.18859375 86.73019531 252.0490625 86.94335938 250.875 C87.14767578 249.67875 87.35199219 248.4825 87.5625 247.25 C87.97676074 244.90038489 88.39461584 242.55140011 88.81640625 240.203125 C88.99631104 239.15801758 89.17621582 238.11291016 89.36157227 237.03613281 C90.01714812 233.9184497 90.97215317 231.01252939 92 228 C92.48395697 225.41516626 92.91934635 222.84806574 93.3125 220.25 C94.53733805 212.57826472 95.91334506 204.94260175 97.375 197.3125 C97.55973877 196.33635742 97.74447754 195.36021484 97.93481445 194.35449219 C99.29474729 187.29931182 100.79684715 180.28053185 102.33203125 173.26171875 C104.84735433 161.76143481 107.27866329 150.2452499 109.6496582 138.71435547 C110.09758447 136.54220178 110.54850921 134.37066459 111.00219727 132.19970703 C111.67087987 128.99905717 112.33056918 125.79666987 112.98828125 122.59375 C113.19133377 121.63021606 113.39438629 120.66668213 113.60359192 119.6739502 C114.61565105 114.69114745 115.37268745 110.08724663 115 105 C113.63253207 102.92965362 113.63253207 102.92965362 111.625 101.5625 C110.99851562 101.06878906 110.37203125 100.57507813 109.7265625 100.06640625 C108.0546248 98.82483571 108.0546248 98.82483571 106 99 C106 98.34 106 97.68 106 97 C104.55316948 95.49726114 104.55316948 95.49726114 102.625 93.9375 C99.37058933 91.17182591 96.16586167 88.36691808 93 85.5 C89.39065767 82.24278863 85.7542229 79.0219938 82.08203125 75.8359375 C80.50127804 74.44202754 78.93944036 73.02663137 77.38671875 71.6015625 C76.49597656 70.78429687 75.60523438 69.96703125 74.6875 69.125 C73.45580078 67.98417969 73.45580078 67.98417969 72.19921875 66.8203125 C70.04538051 64.81440597 70.04538051 64.81440597 67 64 C66.5153125 64.49628906 66.030625 64.99257812 65.53125 65.50390625 C62.02754113 69.05478044 58.48750491 72.5634955 54.8125 75.9375 C54.20019531 76.50339844 53.58789062 77.06929688 52.95703125 77.65234375 C50.65519444 79.23744095 48.74671213 79.62523271 46 80 C46.49350771 75.86863541 47.37571448 74.1968283 50.625 71.625 C51.33785156 71.03332031 52.05070313 70.44164063 52.78515625 69.83203125 C53.88150391 68.92517578 53.88150391 68.92517578 55 68 C56.37398077 66.79302241 57.72972322 65.56482748 59.0625 64.3125 C59.65160156 63.77238281 60.24070313 63.23226562 60.84765625 62.67578125 C62.18820421 61.07016705 62.18820421 61.07016705 61.98046875 59.04296875 C60.61261388 56.19281698 58.75983472 54.9150184 56.25 53 C51.75508571 49.45784387 47.49203882 45.78359193 43.3125 41.875 C39.24170052 38.07665327 35.145406 34.33014843 30.93359375 30.6875 C28.72147948 28.75692755 26.5491109 26.78576111 24.375 24.8125 C19.63444809 20.52762905 14.7922034 16.37079262 9.90966797 12.24926758 C9.06299561 11.53033325 9.06299561 11.53033325 8.19921875 10.796875 C7.65185059 10.33345703 7.10448242 9.87003906 6.54052734 9.39257812 C5 8 5 8 2.45703125 5.140625 C0.20522951 2.76682935 0.20522951 2.76682935 -2.64825439 2.71328735 C-6.68639464 3.05871508 -10.27398177 4.14994599 -14.08496094 5.44677734 Z " fill="#373529" transform="translate(193,7)"/>
<path d="M0 0 C1.17219543 0.78345715 2.33763668 1.57702836 3.5 2.375 C4.47453125 3.03628906 4.47453125 3.03628906 5.46875 3.7109375 C6.22671875 4.34902344 6.22671875 4.34902344 7 5 C7 5.66 7 6.32 7 7 C7.53753906 7.21785156 8.07507813 7.43570313 8.62890625 7.66015625 C11.82730952 9.46749121 14.30111036 11.91570152 16.9375 14.4375 C21.51408504 18.7359428 26.14958468 22.9376321 30.9375 27 C31.45626709 27.44400146 31.97503418 27.88800293 32.50952148 28.34545898 C35.85459447 31.16539264 39.35906994 33.58274341 43 36 C45.56733039 38.08498347 47.39754723 40.09790967 49 43 C49.09521484 45.17480469 49.09521484 45.17480469 48.7734375 47.546875 C48.65830811 48.42811035 48.54317871 49.3093457 48.42456055 50.21728516 C48.28445557 51.13558105 48.14435059 52.05387695 48 53 C47.86698486 53.89380371 47.73396973 54.78760742 47.59692383 55.70849609 C47.15630002 58.51976124 46.67928219 61.32224519 46.1875 64.125 C46.01226807 65.13199951 45.83703613 66.13899902 45.65649414 67.17651367 C44.62433615 72.95263746 43.4382221 78.64068529 41.9375 84.3125 C39.86992681 92.15306186 38.5797861 100.04506457 37.31591797 108.04833984 C36.27017214 114.50868927 34.79699668 120.71051164 33 127 C31.8209278 132.2597674 30.9044113 137.55217235 30.0625 142.875 C29.0611783 149.01696538 27.55769986 154.97970055 26 161 C24.68614636 166.24635348 23.77912311 171.44957457 23.0625 176.8125 C22.29269043 182.45777021 21.15618487 187.87767205 19.68359375 193.37890625 C19.02413194 195.90747125 18.50181181 198.43628552 18 201 C17.19892822 201.25692627 16.39785645 201.51385254 15.57250977 201.77856445 C12.55870772 202.74544455 9.54505357 203.71278394 6.53149414 204.68041992 C5.23500241 205.09661547 3.93845436 205.51263565 2.6418457 205.9284668 C-3.89912405 208.02632317 -10.43779929 210.12785006 -16.94995117 212.3137207 C-19.11870644 213.03973845 -21.29132698 213.75321547 -23.46484375 214.46484375 C-24.57182617 214.82932617 -24.57182617 214.82932617 -25.70117188 215.20117188 C-27.18737461 215.69051548 -28.67435267 216.17751084 -30.16210938 216.66210938 C-33.9555186 217.91555497 -37.67508204 219.2569608 -41.36572266 220.7878418 C-48.05977378 223.47925174 -54.90087437 225.72333209 -61.74609375 227.9921875 C-63.16609407 228.465122 -64.58601949 228.93828144 -66.00587463 229.41165161 C-68.9729461 230.40015691 -71.94067194 231.3866624 -74.90893555 232.37158203 C-78.65480413 233.61458668 -82.39935915 234.86149194 -86.14349937 236.10969162 C-95.08958006 239.09167998 -104.04145383 242.05567168 -113 245 C-114.07163391 245.35243774 -115.14326782 245.70487549 -116.24737549 246.06799316 C-118.94507863 246.95140245 -121.64538997 247.82597884 -124.34765625 248.6953125 C-125.09164169 248.93885468 -125.83562714 249.18239685 -126.60215759 249.43331909 C-129.94827522 250.49650845 -132.44149193 251 -136 251 C-136 250.34 -136 249.68 -136 249 C-136.56460938 248.75378906 -137.12921875 248.50757813 -137.7109375 248.25390625 C-140.39895928 246.78145746 -142.37317156 245.01695721 -144.625 242.9375 C-145.5015625 242.13441406 -146.378125 241.33132813 -147.28125 240.50390625 C-148.1784375 239.67761719 -149.075625 238.85132813 -150 238 C-151.70605611 236.45581367 -153.41433079 234.91407431 -155.125 233.375 C-155.95257813 232.62992188 -156.78015625 231.88484375 -157.6328125 231.1171875 C-160.38118628 228.65907101 -163.15705224 226.2341803 -165.9375 223.8125 C-169.17375077 220.96852205 -172.36408668 218.07387299 -175.5625 215.1875 C-178.33012541 212.70373361 -181.12908559 210.25831133 -183.93359375 207.81640625 C-187.18250503 204.96055796 -190.38379081 202.05221961 -193.58984375 199.1484375 C-195.73293815 197.23806161 -197.91433803 195.39355335 -200.125 193.5625 C-201.07375 192.716875 -202.0225 191.87125 -203 191 C-203 190.34 -203 189.68 -203 189 C-198.37125754 190.07645174 -196.26407521 191.53686629 -193.3984375 195.296875 C-188.9037391 200.77086523 -182.80973887 205.00366922 -177.17578125 209.2265625 C-174.60106035 211.32516805 -172.33441887 213.6374556 -170 216 C-168.07165672 217.80333344 -166.13801401 219.59613627 -164.1875 221.375 C-163.40137329 222.09236328 -163.40137329 222.09236328 -162.59936523 222.82421875 C-161.06826479 224.21839152 -159.53460304 225.60968468 -158 227 C-157.21367187 227.71414063 -156.42734375 228.42828125 -155.6171875 229.1640625 C-152.92288928 231.57151528 -150.4431197 233.74237227 -147.3125 235.5625 C-144.19205791 237.50223427 -142.33413993 240.18706214 -140 243 C-137.86690808 244.23512079 -137.86690808 244.23512079 -136 245 C-135.67 245.66 -135.34 246.32 -135 247 C-131.05165049 247.35894086 -128.49498869 246.40261175 -124.91830444 244.81564331 C-121.84389766 243.50843718 -118.66964879 242.51251925 -115.48828125 241.50390625 C-114.77654251 241.27501709 -114.06480377 241.04612793 -113.33149719 240.81030273 C-111.79730237 240.31708783 -110.26265512 239.82527844 -108.7276001 239.33474731 C-104.52796546 237.991881 -100.33248562 236.63614337 -96.13671875 235.28125 C-95.27622925 235.00358292 -94.41573975 234.72591583 -93.5291748 234.43983459 C-85.54553202 231.86034056 -77.58164794 229.22394238 -69.625 226.5625 C-68.94170624 226.33397339 -68.25841248 226.10544678 -67.55441284 225.86999512 C-64.53192404 224.85895393 -61.50948114 223.84777606 -58.48719788 222.83612061 C-50.9822393 220.32529191 -43.47305739 217.82720124 -35.96356583 215.32997322 C-31.6184424 213.8848717 -27.27360781 212.43890195 -22.92875481 210.99298763 C-19.292029 209.78280538 -15.65513648 208.57312883 -12.0178833 207.36453247 C-8.5644679 206.21698067 -5.11153331 205.06799338 -1.65894318 203.91796112 C-0.36712454 203.48795529 0.92487105 203.0584807 2.21704865 202.62955475 C3.9988369 202.03802858 5.77995405 201.44448205 7.56103516 200.85083008 C8.56719879 200.5161824 9.57336243 200.18153473 10.61001587 199.83674622 C12.97426173 199.06559364 12.97426173 199.06559364 15 198 C15.72229711 195.48624737 15.72229711 195.48624737 16.21875 192.42578125 C16.53392578 190.71165039 16.53392578 190.71165039 16.85546875 188.96289062 C17.06816406 187.75826172 17.28085937 186.55363281 17.5 185.3125 C17.92326863 182.95373937 18.35023566 180.59563882 18.78125 178.23828125 C18.96751953 177.18680908 19.15378906 176.13533691 19.34570312 175.05200195 C20.01431949 171.93320601 20.97226883 169.01670395 22 166 C22.48395697 163.41516626 22.91934635 160.84806574 23.3125 158.25 C24.53733805 150.57826472 25.91334506 142.94260175 27.375 135.3125 C27.55973877 134.33635742 27.74447754 133.36021484 27.93481445 132.35449219 C29.29482673 125.29889966 30.79893876 118.28055158 32.3359375 111.26171875 C34.85280276 99.76546467 37.24566217 88.24596555 39.59472656 76.71435547 C40.26105944 73.44574941 40.93122248 70.17794259 41.6015625 66.91015625 C42.03147781 64.80473401 42.46117382 62.69926696 42.890625 60.59375 C43.08851624 59.63021606 43.28640747 58.66668213 43.49029541 57.6739502 C44.48108004 52.79388847 45.35930602 47.93861194 46 43 C45.443125 42.7525 44.88625 42.505 44.3125 42.25 C41.57589087 40.77075182 39.32349131 39.06532561 37 37 C37 36.34 37 35.68 37 35 C36.10812988 34.59140747 36.10812988 34.59140747 35.19824219 34.17456055 C33.05559444 33.02970512 31.57993363 31.87355302 29.828125 30.20703125 C29.25030273 29.66272461 28.67248047 29.11841797 28.07714844 28.55761719 C27.17270996 27.69378418 27.17270996 27.69378418 26.25 26.8125 C24.99036407 25.62547304 23.7299535 24.43926755 22.46875 23.25390625 C21.86675781 22.68687988 21.26476562 22.11985352 20.64453125 21.53564453 C18.13317636 19.19056997 15.54815184 16.93758535 12.9453125 14.6953125 C9.61440208 11.79247089 6.36386838 8.79981787 3.1015625 5.8203125 C1.13276579 3.96323333 1.13276579 3.96323333 -1 3 C-0.67 2.01 -0.34 1.02 0 0 Z " fill="#2D2A1C" transform="translate(262,69)"/>
<path d="M0 0 C2.7109375 1.94140625 2.7109375 1.94140625 5.375 4.5625 C6.33924578 5.49020526 7.30409261 6.41728618 8.26953125 7.34375 C9.17058594 8.2203125 10.07164062 9.096875 11 10 C12.34397997 11.19901687 13.69696794 12.38808703 15.0625 13.5625 C18.07073528 16.17701942 21.04130249 18.82951656 24 21.5 C27.60859396 24.75653601 31.24586949 27.97498042 34.9140625 31.1640625 C38.28035988 34.12690851 41.58723222 37.15552169 44.8984375 40.1796875 C46.86723421 42.03676667 46.86723421 42.03676667 49 43 C49 43.66 49 44.32 49 45 C49.5775 45.2475 50.155 45.495 50.75 45.75 C53.29879381 47.16599656 54.94723215 48.94723215 57 51 C58.485 51.495 58.485 51.495 60 52 C61.6875 54.0625 61.6875 54.0625 63 56 C67.5640036 55.1509827 69.89635713 52.44094741 73 49.1875 C73.52078125 48.65318359 74.0415625 48.11886719 74.578125 47.56835938 C76.81100568 45.27627353 79.02487512 42.97322837 81.203125 40.62890625 C83 39 83 39 85.75 38.75 C86.4925 38.8325 87.235 38.915 88 39 C88.33 40.65 88.66 42.3 89 44 C88.55011719 44.37769531 88.10023438 44.75539062 87.63671875 45.14453125 C81.43929968 50.44773354 75.72181086 56.19650456 70 62 C59.56956552 72.57933939 59.56956552 72.57933939 54.625 77.125 C54.03976563 77.66382812 53.45453125 78.20265625 52.8515625 78.7578125 C50.60641781 80.26404881 48.65574353 80.62582308 46 81 C45.1875 79.3125 45.1875 79.3125 45 77 C46.6021434 75.27121659 48.28395845 73.61578369 50 72 C51.94528205 70.1329632 53.87903359 68.25425707 55.8125 66.375 C56.31458984 65.89804688 56.81667969 65.42109375 57.33398438 64.9296875 C58.6136883 63.67609998 59.81360139 62.3422303 61 61 C61 60.01 61 59.02 61 58 C58.98734011 56.03720697 58.98734011 56.03720697 56.3125 54.0625 C51.79947641 50.497444 47.51291071 46.80275247 43.3125 42.875 C39.24168023 39.07667399 35.14540703 35.33014932 30.93359375 31.6875 C28.72147948 29.75692755 26.5491109 27.78576111 24.375 25.8125 C19.63444809 21.52762905 14.7922034 17.37079262 9.90966797 13.24926758 C9.34521973 12.76997803 8.78077148 12.29068848 8.19921875 11.796875 C7.37236572 11.10368164 7.37236572 11.10368164 6.52880859 10.39648438 C5 9 5 9 2.64453125 6.078125 C0.31607384 3.83960676 0.31607384 3.83960676 -1.85621643 3.89701843 C-8.05175763 4.65181076 -13.66745168 6.31995236 -19.546875 8.37890625 C-21.00821869 8.87619484 -21.00821869 8.87619484 -22.49908447 9.38352966 C-25.58577856 10.43449791 -28.66822044 11.49721433 -31.75 12.5625 C-34.84624615 13.63076027 -37.94331903 14.69616067 -41.04376221 15.75218201 C-42.96614483 16.40704459 -44.88615633 17.06892055 -46.80340576 17.73866272 C-47.67491272 18.03574631 -48.54641968 18.3328299 -49.44433594 18.63891602 C-50.2055072 18.9023732 -50.96667847 19.16583038 -51.75091553 19.43727112 C-54.24001141 20.0600517 -56.44409085 20.09814846 -59 20 C-56.41552747 18.27701831 -54.29884157 17.23646815 -51.4375 16.125 C-50.65246094 15.81820313 -49.86742187 15.51140625 -49.05859375 15.1953125 C-48.04925781 14.80085938 -47.03992188 14.40640625 -46 14 C-45.32888184 13.72285156 -44.65776367 13.44570313 -43.96630859 13.16015625 C-36.99164754 10.30024128 -29.90196793 7.82117454 -22.7578125 5.42578125 C-20.73658805 4.74548586 -18.71998456 4.05248743 -16.703125 3.359375 C-15.40130639 2.92108793 -14.09923174 2.48356046 -12.796875 2.046875 C-11.63510742 1.65338867 -10.47333984 1.25990234 -9.27636719 0.85449219 C-5.9834191 -0.00432438 -3.38339442 -0.30728035 0 0 Z " fill="#383526" transform="translate(193,7)"/>
<path d="M0 0 C4.62874246 1.07645174 6.73592479 2.53686629 9.6015625 6.296875 C14.0962609 11.77086523 20.19026113 16.00366922 25.82421875 20.2265625 C28.39893965 22.32516805 30.66558113 24.6374556 33 27 C34.92834328 28.80333344 36.86198599 30.59613627 38.8125 32.375 C39.59862671 33.09236328 39.59862671 33.09236328 40.40063477 33.82421875 C41.93173521 35.21839152 43.46539696 36.60968468 45 38 C45.78632812 38.71414063 46.57265625 39.42828125 47.3828125 40.1640625 C50.07711072 42.57151528 52.5568803 44.74237227 55.6875 46.5625 C58.80794209 48.50223427 60.66586007 51.18706214 63 54 C65.13309192 55.23512079 65.13309192 55.23512079 67 56 C67.33 56.66 67.66 57.32 68 58 C71.94834951 58.35894086 74.50501131 57.40261175 78.08169556 55.81564331 C81.15611058 54.50843368 84.33037432 53.51260743 87.51171875 52.50390625 C88.22604065 52.27402008 88.94036255 52.04413391 89.67633057 51.80728149 C92.01239137 51.0558778 94.34985828 50.30896958 96.6875 49.5625 C100.006037 48.49996349 103.32370986 47.43477618 106.640625 46.3671875 C107.48934677 46.09406235 108.33806854 45.82093719 109.21250916 45.53953552 C115.2414933 43.59044113 121.2423602 41.56747816 127.234375 39.5078125 C128.87926922 38.94575356 130.52420668 38.38382119 132.16918945 37.82202148 C134.53978807 37.01202408 136.90838015 36.19771537 139.27230835 35.36843872 C141.45756368 34.6021324 143.64789916 33.85238411 145.83984375 33.10546875 C147.08113037 32.67387451 148.32241699 32.24228027 149.60131836 31.79760742 C153.17201312 30.95963172 155.46920688 31.12633555 159 32 C155.9419487 34.03870087 153.37969141 34.99606335 149.90234375 36.15136719 C149.28868958 36.35660004 148.6750354 36.56183289 148.04278564 36.77328491 C146.0091149 37.45217886 143.97336351 38.12458805 141.9375 38.796875 C140.50745142 39.27253676 139.07752172 39.74855607 137.64770508 40.22491455 C134.63908565 41.22625146 131.62950863 42.22463559 128.61914062 43.22070312 C124.81782752 44.47851121 121.01820599 45.74133089 117.2191925 47.00606537 C108.15270854 50.02415136 99.07946304 53.02119396 90 56 C88.92089355 56.35457275 87.84178711 56.70914551 86.72998047 57.07446289 C84.03064322 57.95809743 81.32876091 58.83313688 78.625 59.703125 C77.8827417 59.94617371 77.1404834 60.18922241 76.37573242 60.43963623 C73.03611958 61.50111431 70.55242809 62 67 62 C67 61.34 67 60.68 67 60 C66.43539062 59.75378906 65.87078125 59.50757813 65.2890625 59.25390625 C62.60104072 57.78145746 60.62682844 56.01695721 58.375 53.9375 C57.06015625 52.73287109 57.06015625 52.73287109 55.71875 51.50390625 C54.8215625 50.67761719 53.924375 49.85132813 53 49 C51.29394389 47.45581367 49.58566921 45.91407431 47.875 44.375 C47.04742187 43.62992187 46.21984375 42.88484375 45.3671875 42.1171875 C42.61881372 39.65907101 39.84294776 37.2341803 37.0625 34.8125 C33.82624923 31.96852205 30.63591332 29.07387299 27.4375 26.1875 C24.66987459 23.70373361 21.87091441 21.25831133 19.06640625 18.81640625 C15.81749497 15.96055796 12.61620919 13.05221961 9.41015625 10.1484375 C7.26706185 8.23806161 5.08566197 6.39355335 2.875 4.5625 C1.92625 3.716875 0.9775 2.87125 0 2 C0 1.34 0 0.68 0 0 Z " fill="#373429" transform="translate(59,258)"/>
<path d="M0 0 C0.89187012 0.33161133 0.89187012 0.33161133 1.80175781 0.66992188 C2.4831543 2.45581055 2.4831543 2.45581055 2.80175781 4.66992188 C1.6652832 6.38989258 1.6652832 6.38989258 -0.10058594 8.09570312 C-0.74447266 8.72798828 -1.38835937 9.36027344 -2.05175781 10.01171875 C-3.08333008 10.9872168 -3.08333008 10.9872168 -4.13574219 11.98242188 C-4.78865234 12.62115234 -5.4415625 13.25988281 -6.11425781 13.91796875 C-9.38604265 17.09324076 -12.73019064 20.15079623 -16.19042969 23.11914062 C-19.0433336 25.58696006 -21.69887433 28.16019285 -24.30371094 30.88867188 C-25.31401367 31.94441406 -25.31401367 31.94441406 -26.34472656 33.02148438 C-27.72659634 34.47608414 -29.09876086 35.93995521 -30.46191406 37.41210938 C-31.13158203 38.105625 -31.80125 38.79914063 -32.49121094 39.51367188 C-33.38102661 40.46016602 -33.38102661 40.46016602 -34.28881836 41.42578125 C-36.19824219 42.66992188 -36.19824219 42.66992188 -38.92993164 42.3671875 C-39.67847412 42.13708984 -40.4270166 41.90699219 -41.19824219 41.66992188 C-40.6812384 37.66756227 -39.75996854 35.73752879 -36.88183594 32.92773438 C-35.85799805 31.91646484 -35.85799805 31.91646484 -34.81347656 30.88476562 C-34.09482422 30.19511719 -33.37617187 29.50546875 -32.63574219 28.79492188 C-31.94416016 28.11300781 -31.25257812 27.43109375 -30.54003906 26.72851562 C-27.15704249 23.41803435 -23.71214926 20.21781149 -20.12402344 17.13085938 C-15.48480395 13.12407927 -11.30260677 8.70695267 -7.13574219 4.21679688 C-6.55308594 3.61351562 -5.97042969 3.01023438 -5.37011719 2.38867188 C-4.85545898 1.84146484 -4.34080078 1.29425781 -3.81054688 0.73046875 C-2.19824219 -0.33007812 -2.19824219 -0.33007812 0 0 Z " fill="#9924E6" transform="translate(128.1982421875,187.330078125)"/>
<path d="M0 0 C1.671875 0.8125 1.671875 0.8125 2.32592773 2.62573242 C2.44009033 3.34736572 2.55425293 4.06899902 2.671875 4.8125 C0.76056969 7.12969265 -1.08867802 9.08544467 -3.265625 11.125 C-3.82314453 11.66833984 -4.38066406 12.21167969 -4.95507812 12.77148438 C-7.94998278 15.66394076 -11.02968371 18.42835747 -14.19140625 21.13671875 C-17.24616689 23.78535727 -20.09529363 26.5626472 -22.90625 29.46875 C-23.67453125 30.2628125 -24.4428125 31.056875 -25.234375 31.875 C-26.82001061 33.52406103 -28.39795065 35.18055068 -29.96875 36.84375 C-30.731875 37.6275 -31.495 38.41125 -32.28125 39.21875 C-32.96348633 39.93353516 -33.64572266 40.64832031 -34.34863281 41.38476562 C-36.328125 42.8125 -36.328125 42.8125 -38.58105469 42.53710938 C-40.328125 41.8125 -40.328125 41.8125 -41.07788086 40.0949707 C-41.328125 37.8125 -41.328125 37.8125 -39.73266602 35.63354492 C-38.94045654 34.86115479 -38.14824707 34.08876465 -37.33203125 33.29296875 C-36.02782227 32.00616211 -36.02782227 32.00616211 -34.69726562 30.69335938 C-33.30797852 29.36014648 -33.30797852 29.36014648 -31.890625 28 C-30.99923828 27.12279297 -30.10785156 26.24558594 -29.18945312 25.34179688 C-24.61647006 20.86917189 -19.94713552 16.56312582 -15.09936523 12.3918457 C-11.92631149 9.56255767 -9.0551274 6.44013154 -6.19921875 3.29296875 C-2.83326949 -0.22818278 -2.83326949 -0.22818278 0 0 Z " fill="#9823E7" transform="translate(229.328125,91.1875)"/>
<path d="M0 0 C2.0625 0.4375 2.0625 0.4375 4 1 C4.495 2.98 4.495 2.98 5 5 C4.57549561 5.35304199 4.15099121 5.70608398 3.71362305 6.06982422 C-3.2947524 12.04129698 -9.70633789 18.59592303 -16.1875 25.125 C-17.36109203 26.30362055 -18.5349186 27.48200762 -19.70898438 28.66015625 C-21.86497675 30.8242462 -24.01960277 32.98967604 -26.17260742 35.15673828 C-26.6468515 35.63008606 -27.12109558 36.10343384 -27.60971069 36.59112549 C-28.99652799 37.99648158 -30.34479482 39.43953646 -31.69262695 40.88232422 C-32.45406006 41.58115723 -33.21549316 42.27999023 -34 43 C-36.8125 42.8125 -36.8125 42.8125 -39 42 C-39.33 40.68 -39.66 39.36 -40 38 C-39.4013916 37.4735791 -38.8027832 36.9471582 -38.18603516 36.40478516 C-31.67431693 30.61925274 -25.48816028 24.57753397 -19.375 18.375 C-13.43010477 12.34394686 -7.44557636 6.49476365 -1 1 C-0.67 0.67 -0.34 0.34 0 0 Z " fill="#9821E7" transform="translate(177,140)"/>
<path d="M0 0 C0.7425 0.0825 1.485 0.165 2.25 0.25 C2.745 2.725 2.745 2.725 3.25 5.25 C2.80011719 5.62769531 2.35023438 6.00539063 1.88671875 6.39453125 C-4.31070032 11.69773354 -10.02818914 17.44650456 -15.75 23.25 C-26.18043448 33.82933939 -26.18043448 33.82933939 -31.125 38.375 C-31.71023437 38.91382813 -32.29546875 39.45265625 -32.8984375 40.0078125 C-35.14358219 41.51404881 -37.09425647 41.87582308 -39.75 42.25 C-40.5625 40.5625 -40.5625 40.5625 -40.75 38.25 C-39.14480622 36.52404853 -37.46378041 34.86818178 -35.75 33.25 C-34.79409699 32.31141467 -33.84098458 31.36997914 -32.890625 30.42578125 C-32.17712891 29.71905273 -32.17712891 29.71905273 -31.44921875 28.99804688 C-30.97097656 28.52431641 -30.49273437 28.05058594 -30 27.5625 C-29.25943359 26.83450195 -29.25943359 26.83450195 -28.50390625 26.09179688 C-25.78384724 23.43159783 -25.78384724 23.43159783 -23.75 20.25 C-23.09 20.25 -22.43 20.25 -21.75 20.25 C-21.75 19.59 -21.75 18.93 -21.75 18.25 C-20.24609375 16.76953125 -20.24609375 16.76953125 -18.1875 15.0625 C-15.35033205 12.65216263 -12.62414768 10.20372457 -10 7.5625 C-9.43023437 6.99015625 -8.86046875 6.4178125 -8.2734375 5.828125 C-7.01737209 4.52697006 -5.81343487 3.1757047 -4.625 1.8125 C-2.75 0.25 -2.75 0.25 0 0 Z " fill="#971EEE" transform="translate(278.75,45.75)"/>
<path d="M0 0 C2.625 0.375 2.625 0.375 5 1 C4.04009448 7.47936224 -1.23776796 11.11850468 -5.92578125 15.11328125 C-7.96458439 16.9677858 -9.72216174 18.89669936 -11.5 21 C-14.38617315 24.40202762 -17.47736892 27.26468167 -20.890625 30.12890625 C-24.05426728 32.93517413 -26.87870955 36.05657738 -29.7265625 39.1796875 C-32.47701474 41.38193964 -34.53359267 41.69209562 -38 42 C-38.7355957 40.27050781 -38.7355957 40.27050781 -39 38 C-37.49291992 35.89355469 -37.49291992 35.89355469 -35.23046875 33.671875 C-34.42416016 32.87265625 -33.61785156 32.0734375 -32.78710938 31.25 C-31.92923828 30.425 -31.07136719 29.6 -30.1875 28.75 C-28.9180957 27.48929687 -28.9180957 27.48929687 -27.62304688 26.203125 C-21.29404677 20 -21.29404677 20 -19 20 C-18.74025391 19.40977051 -18.48050781 18.81954102 -18.21289062 18.21142578 C-16.91596388 15.84677956 -15.5786023 14.43029406 -13.59375 12.6171875 C-12.93246094 12.00746094 -12.27117188 11.39773437 -11.58984375 10.76953125 C-10.90019531 10.14433594 -10.21054687 9.51914063 -9.5 8.875 C-8.13529299 7.62253058 -6.77070436 6.36993215 -5.40625 5.1171875 C-4.80103516 4.56659668 -4.19582031 4.01600586 -3.57226562 3.44873047 C-2.35507768 2.32717872 -1.17034714 1.17034714 0 0 Z " fill="#971EEE" transform="translate(74,235)"/>
<path d="M0 0 C-0.75925781 0.33773438 -1.51851563 0.67546875 -2.30078125 1.0234375 C-3.79158203 1.69246094 -3.79158203 1.69246094 -5.3125 2.375 C-6.79169922 3.03628906 -6.79169922 3.03628906 -8.30078125 3.7109375 C-11.12745207 4.98242758 -11.12745207 4.98242758 -14 7 C-16.02705946 7.74285861 -18.07325743 8.43411607 -20.12890625 9.09375 C-21.32837891 9.48433594 -22.52785156 9.87492187 -23.76367188 10.27734375 C-25.66826414 10.89033849 -27.572862 11.50331975 -29.47827148 12.11376953 C-31.3217894 12.70618464 -33.16288804 13.30611174 -35.00390625 13.90625 C-36.10549072 14.26009766 -37.2070752 14.61394531 -38.34204102 14.97851562 C-41.10444868 15.83352845 -41.10444868 15.83352845 -43 18 C-44.8972168 18.47680664 -44.8972168 18.47680664 -47.26171875 18.84765625 C-53.98654125 20.08672565 -60.34414348 22.25315047 -66.8125 24.4375 C-68.01326172 24.83259766 -69.21402344 25.22769531 -70.45117188 25.63476562 C-71.60810547 26.02212891 -72.76503906 26.40949219 -73.95703125 26.80859375 C-74.99835205 27.15720459 -76.03967285 27.50581543 -77.11254883 27.86499023 C-79.97273763 28.98928361 -82.403181 30.36853914 -85 32 C-90.1860407 34.14405216 -95.40811689 35.54351975 -101 36 C-101.66 35.67 -102.32 35.34 -103 35 C-104.32860925 34.64830932 -105.66158328 34.31229724 -107 34 C-93.34728357 29.41020146 -79.69169629 24.82903857 -66.03272438 20.25788784 C-59.69104916 18.13528212 -53.35027724 16.01006977 -47.01171875 13.87817383 C-40.89960681 11.82275241 -34.78511223 9.77457546 -28.6688652 7.731493 C-26.33070101 6.94901499 -23.99342153 6.16388839 -21.65703201 5.37612724 C-18.39553388 4.27694027 -15.13107471 3.18704015 -11.86572266 2.09936523 C-10.89108566 1.76849411 -9.91644867 1.43762299 -8.91227722 1.09672546 C-8.02604172 0.80360474 -7.13980621 0.51048401 -6.22671509 0.20848083 C-5.45425257 -0.05054299 -4.68179005 -0.30956682 -3.88591957 -0.57643986 C-2 -1 -2 -1 0 0 Z " fill="#4D4C45" transform="translate(147,22)"/>
<path d="M0 0 C-3.09519817 2.06346544 -5.71848391 3.02874511 -9.24047852 4.19897461 C-9.86858932 4.40902634 -10.49670013 4.61907806 -11.1438446 4.835495 C-13.22077392 5.52880718 -15.29978143 6.21564633 -17.37890625 6.90234375 C-18.83051522 7.38519325 -20.2820058 7.8683988 -21.73338318 8.35194397 C-24.77976757 9.36587066 -27.82710988 10.37684435 -30.87524414 11.38549805 C-34.75756459 12.6702329 -38.63816258 13.96007234 -42.5181284 15.25189877 C-46.24192815 16.49143355 -49.96665611 17.72816845 -53.69140625 18.96484375 C-54.39102541 19.19742323 -55.09064457 19.43000271 -55.81146431 19.66963005 C-62.09349016 21.75637535 -68.37781281 23.83734955 -74.69897461 25.80297852 C-75.44110703 26.0338063 -76.18323944 26.26463409 -76.94786072 26.50245667 C-80.04465645 27.25327806 -82.83035849 27.20671575 -86 27 C-85 25 -85 25 -81.51049805 23.67822266 C-79.930036 23.1658379 -78.34685778 22.66179001 -76.76171875 22.1640625 C-75.90545898 21.88827866 -75.04919922 21.61249481 -74.16699219 21.32835388 C-71.34271493 20.42014095 -68.51523747 19.52237598 -65.6875 18.625 C-61.75939596 17.36906043 -57.83272926 16.10866499 -53.90625 14.84765625 C-52.91114914 14.5288298 -51.91604828 14.21000336 -50.89079285 13.8815155 C-44.35098125 11.77918558 -37.83983237 9.60463365 -31.34375 7.37109375 C-29.69441972 6.80712188 -28.0450871 6.24315686 -26.39575195 5.67919922 C-24.05655866 4.8785597 -21.71932158 4.07367514 -19.38656616 3.25445557 C-17.24468622 2.50275986 -15.09776996 1.76752212 -12.94921875 1.03515625 C-11.14457153 0.40685913 -11.14457153 0.40685913 -9.3034668 -0.23413086 C-5.78670738 -1.04944933 -3.47910044 -0.85049091 0 0 Z " fill="#434030" transform="translate(218,290)"/>
<path d="M0 0 C-0.93972656 0.32484375 -0.93972656 0.32484375 -1.8984375 0.65625 C-4.21986494 1.85177076 -4.21986494 1.85177076 -4.9765625 4.46875 C-5.19054687 5.4690625 -5.40453125 6.469375 -5.625 7.5 C-5.98464844 9.13001953 -5.98464844 9.13001953 -6.3515625 10.79296875 C-6.56554687 11.85128906 -6.77953125 12.90960938 -7 14 C-7.17273437 14.82113281 -7.34546875 15.64226562 -7.5234375 16.48828125 C-8.03609324 18.98852851 -8.51867299 21.49353417 -9 24 C-10.44515726 31.32488282 -11.91119088 38.64228746 -13.5 45.9375 C-14.43777946 50.2522573 -15.29627659 54.56993583 -16.07495117 58.91625977 C-17.60056912 67.42170824 -19.64623251 75.68415141 -22 84 C-22.33 84 -22.66 84 -23 84 C-23.32957343 76.55204737 -22.39417938 69.87590237 -20.75 62.625 C-20.28566075 60.49366319 -19.82213063 58.36214996 -19.359375 56.23046875 C-19.12798828 55.17778809 -18.89660156 54.12510742 -18.65820312 53.04052734 C-17.71506764 48.68377314 -16.85584578 44.31206923 -16 39.9375 C-14.52800015 32.50564054 -12.97452435 25.09294489 -11.375 17.6875 C-11.065625 16.24588501 -11.065625 16.24588501 -10.75 14.77514648 C-9.66474634 9.78976248 -8.46928406 4.88638047 -7 0 C-3.98968256 -0.93423645 -3.13349732 -1.04449911 0 0 Z " fill="#3E3B28" transform="translate(47,57)"/>
<path d="M0 0 C1.5078125 1.25390625 1.5078125 1.25390625 3 3 C2.80032855 9.28965057 1.32393153 15.13553883 -0.28125 21.203125 C-0.94650371 23.79182965 -1.48679758 26.37782196 -2 29 C-2.80107178 29.25692627 -3.60214355 29.51385254 -4.42749023 29.77856445 C-7.44129228 30.74544455 -10.45494643 31.71278394 -13.46850586 32.68041992 C-14.76499759 33.09661547 -16.06154564 33.51263565 -17.3581543 33.9284668 C-23.89029873 36.02349266 -30.42022478 38.12199119 -36.92358398 40.30493164 C-39.17141007 41.05737854 -41.42322241 41.79700468 -43.67578125 42.53515625 C-44.44083984 42.78716797 -45.20589844 43.03917969 -45.99414062 43.29882812 C-47.55849542 43.81412949 -49.12362058 44.32709726 -50.68945312 44.83789062 C-51.44806641 45.08861328 -52.20667969 45.33933594 -52.98828125 45.59765625 C-53.66415283 45.81945557 -54.34002441 46.04125488 -55.03637695 46.26977539 C-57.05276952 46.97160121 -57.05276952 46.97160121 -59.04760742 48.07983398 C-61.73560855 49.34669359 -64.07087453 49.13314207 -67 49 C-67 48.34 -67 47.68 -67 47 C-66.25275665 46.75165909 -65.50551331 46.50331818 -64.73562622 46.24745178 C-57.70143152 43.90939297 -50.66771643 41.56989948 -43.63453865 39.22878361 C-40.01850471 38.02518017 -36.40228643 36.82213683 -32.78564453 35.62036133 C-29.29688431 34.46105701 -25.80861144 33.3002974 -22.3206749 32.13851738 C-20.98836477 31.69503098 -19.65587842 31.25207361 -18.32321548 30.80964851 C-16.45996889 30.1909779 -14.59739938 29.57026921 -12.73486328 28.94946289 C-11.67341095 28.59638565 -10.61195862 28.24330841 -9.51834106 27.87953186 C-7.04581176 27.07594519 -7.04581176 27.07594519 -5 26 C-4.24469622 23.38796973 -4.24469622 23.38796973 -3.7109375 20.21484375 C-3.38222656 18.46010742 -3.38222656 18.46010742 -3.046875 16.66992188 C-2.82515625 15.43822266 -2.6034375 14.20652344 -2.375 12.9375 C-2.14554687 11.70193359 -1.91609375 10.46636719 -1.6796875 9.19335938 C-1.11200757 6.13025308 -0.5524953 3.06587535 0 0 Z " fill="#3A3728" transform="translate(282,241)"/>
<path d="M0 0 C0 0.33 0 0.66 0 1 C-1.0096582 1.28770264 -2.01931641 1.57540527 -3.05957031 1.87182617 C-10.88347929 4.12438268 -18.64936777 6.49559022 -26.359375 9.11328125 C-27.13196655 9.37527313 -27.90455811 9.63726501 -28.70056152 9.90719604 C-31.86086608 10.9818821 -35.01958315 12.06101489 -38.17578125 13.14770508 C-40.52643604 13.95538665 -42.88011225 14.75368866 -45.234375 15.55078125 C-45.9426947 15.79758133 -46.6510144 16.04438141 -47.38079834 16.29866028 C-51.03057743 17.52774473 -54.14099892 18.293213 -58 18 C-55.41552747 16.27701831 -53.29884157 15.23646815 -50.4375 14.125 C-49.65246094 13.81820313 -48.86742187 13.51140625 -48.05859375 13.1953125 C-47.04925781 12.80085938 -46.03992188 12.40640625 -45 12 C-44.32960693 11.72430176 -43.65921387 11.44860352 -42.96850586 11.16455078 C-35.96533622 8.30103899 -28.86323975 5.75315192 -21.70288086 3.31591797 C-20.34797047 2.85142416 -18.9954369 2.3799443 -17.64526367 1.90185547 C-15.66837882 1.20239723 -13.6851559 0.52482078 -11.69921875 -0.1484375 C-10.53221436 -0.55239746 -9.36520996 -0.95635742 -8.1628418 -1.37255859 C-4.62862105 -2.07367379 -3.1295759 -1.67767295 0 0 Z " fill="#403E32" transform="translate(192,9)"/>
<path d="M0 0 C1.98 0.66 3.96 1.32 6 2 C6 2.66 6 3.32 6 4 C6.99 4.33 7.98 4.66 9 5 C10.35368596 6.31266518 11.68799596 7.64567325 13 9 C13.66 9.33 14.32 9.66 15 10 C15 10.66 15 11.32 15 12 C15.66 12 16.32 12 17 12 C18.24490381 13.50698882 19.48728215 15.01634341 20.703125 16.546875 C22.26706786 18.29924471 23.8892137 19.01496639 26 20 C27 21.33333333 28 22.66666667 29 24 C29.70125 24.309375 30.4025 24.61875 31.125 24.9375 C33 26 33 26 33.75 28.625 C33.8325 29.40875 33.915 30.1925 34 31 C30.13765362 29.40210256 27.41763339 26.77867347 24.4375 23.9375 C20.46679961 20.2160785 16.43524832 16.65875935 12.1875 13.25 C3.32289714 6.09408146 3.32289714 6.09408146 0 2 C0 1.34 0 0.68 0 0 Z " fill="#40392C" transform="translate(21,224)"/>
<path d="M0 0 C0.495 0.99 0.495 0.99 1 2 C0.19175781 2.25394531 -0.61648437 2.50789063 -1.44921875 2.76953125 C-2.51785156 3.11371094 -3.58648437 3.45789062 -4.6875 3.8125 C-6.27111328 4.31716797 -6.27111328 4.31716797 -7.88671875 4.83203125 C-10.86975284 5.95113689 -13.29672542 7.33542205 -16 9 C-21.1860407 11.14405216 -26.40811689 12.54351975 -32 13 C-32.66 12.67 -33.32 12.34 -34 12 C-35.32860925 11.64830932 -36.66158328 11.31229724 -38 11 C-32.91285354 9.26317549 -27.82254096 7.53610813 -22.72900391 5.81811523 C-20.99566913 5.23194061 -19.26324025 4.64308029 -17.53173828 4.05151367 C-15.04691447 3.20308928 -12.55902377 2.36428517 -10.0703125 1.52734375 C-8.90461227 1.12587379 -8.90461227 1.12587379 -7.71536255 0.71629333 C-2.22774341 -1.11387171 -2.22774341 -1.11387171 0 0 Z " fill="#514D38" transform="translate(78,45)"/>
<path d="M0 0 C0.33 0 0.66 0 1 0 C0.6258683 9.44360016 -0.44483727 17.87918 -3 27 C-3.74516146 29.91271677 -4.46580477 32.83139378 -5.1875 35.75 C-5.53475157 37.14072611 -5.88237324 38.53135989 -6.23046875 39.921875 C-6.48441406 40.93765625 -6.73835938 41.9534375 -7 43 C-7.33 43 -7.66 43 -8 43 C-8.12883044 37.97439734 -7.67959077 33.3954848 -6.7578125 28.45703125 C-6.56516312 27.42070808 -6.56516312 27.42070808 -6.36862183 26.3634491 C-6.09764773 24.91497368 -5.8235274 23.46708359 -5.54638672 22.01977539 C-5.12447395 19.80974447 -4.7159049 17.59752878 -4.30859375 15.38476562 C-4.04245964 13.97120464 -3.7755591 12.55778769 -3.5078125 11.14453125 C-3.26691895 9.86940674 -3.02602539 8.59428223 -2.77783203 7.28051758 C-2.12394302 4.52273145 -1.41625749 2.4290152 0 0 Z " fill="#23221A" transform="translate(291,203)"/>
<path d="M0 0 C0.33 0 0.66 0 1 0 C0.64246662 9.71504498 -0.25168273 18.61959318 -3 28 C-3.56476243 30.08272116 -4.12735099 32.16603332 -4.6875 34.25 C-5.12368731 35.83369546 -5.56067201 37.41717291 -6 39 C-6.33 39 -6.66 39 -7 39 C-7.36857836 31.25446595 -6.29329368 24.23699754 -4.625 16.6875 C-4.40328125 15.62982422 -4.1815625 14.57214844 -3.953125 13.48242188 C-2.94652042 8.78986816 -1.88215686 4.42851618 0 0 Z " fill="#333124" transform="translate(31,102)"/>
<path d="M0 0 C4.49065992 0.35677091 6.60854041 2.07114514 9.8125 5.125 C10.67875 5.93582031 11.545 6.74664063 12.4375 7.58203125 C13.283125 8.37996094 14.12875 9.17789062 15 10 C16.43035175 11.27887352 17.86717263 12.55057591 19.3125 13.8125 C19.94800781 14.37066406 20.58351562 14.92882813 21.23828125 15.50390625 C22.77764398 16.81116994 24.38436123 18.03827092 26 19.25 C26.99 20.11625 26.99 20.11625 28 21 C28 21.99 28 22.98 28 24 C24.49172085 22.47920927 22.04728354 20.4004327 19.25 17.8125 C15.44297291 14.32038209 11.59980554 10.88584446 7.69140625 7.5078125 C6.56397719 6.50276027 5.47028633 5.45854391 4.4140625 4.37890625 C2.76581616 2.77163841 1.08972035 1.93677119 -1 1 C-0.67 0.67 -0.34 0.34 0 0 Z " fill="#383627" transform="translate(189,7)"/>
<path d="M0 0 C1.17219543 0.78345715 2.33763668 1.57702836 3.5 2.375 C4.47453125 3.03628906 4.47453125 3.03628906 5.46875 3.7109375 C5.9740625 4.13632813 6.479375 4.56171875 7 5 C7 5.66 7 6.32 7 7 C7.59401611 7.27328125 8.18803223 7.5465625 8.80004883 7.828125 C10.92804061 8.96166851 12.43879455 10.11815997 14.19921875 11.75 C14.76833984 12.2759375 15.33746094 12.801875 15.92382812 13.34375 C16.7968457 14.16359375 16.7968457 14.16359375 17.6875 15 C18.28111328 15.5465625 18.87472656 16.093125 19.48632812 16.65625 C23.86533849 20.73067697 23.86533849 20.73067697 25 23 C20.83124387 22.47403544 18.73180473 20.19493533 15.75 17.375 C14.78578125 16.47523437 13.8215625 15.57546875 12.828125 14.6484375 C11.89484375 13.77445313 10.9615625 12.90046875 10 12 C8.50728902 10.65851138 7.0082924 9.32394555 5.5 8 C4.8915625 7.46375 4.283125 6.9275 3.65625 6.375 C1.83615741 4.81516593 1.83615741 4.81516593 -1 3 C-0.67 2.01 -0.34 1.02 0 0 Z " fill="#312D23" transform="translate(262,69)"/>
<path d="M0 0 C-1 2 -1 2 -2.9777832 2.83789062 C-3.82687256 3.10794922 -4.67596191 3.37800781 -5.55078125 3.65625 C-6.47697266 3.95660156 -7.40316406 4.25695312 -8.35742188 4.56640625 C-9.33259766 4.87449219 -10.30777344 5.18257813 -11.3125 5.5 C-13.22613602 6.11185152 -15.13893125 6.72634037 -17.05078125 7.34375 C-18.32949097 7.74883789 -18.32949097 7.74883789 -19.6340332 8.16210938 C-22.00188375 8.93903149 -22.00188375 8.93903149 -24.10620117 10.09570312 C-26.76125851 11.36350413 -29.1024416 11.1317072 -32 11 C-32 10.34 -32 9.68 -32 9 C-28.24960933 7.70852528 -24.49593907 6.42712927 -20.73901367 5.15478516 C-18.83658434 4.50818581 -16.93682413 3.85375058 -15.03710938 3.19921875 C-13.83505859 2.79316406 -12.63300781 2.38710938 -11.39453125 1.96875 C-9.73707886 1.40317383 -9.73707886 1.40317383 -8.04614258 0.82617188 C-5.19168408 0.05198837 -2.93544395 -0.17197068 0 0 Z " fill="#302D1D" transform="translate(247,279)"/>
<path d="M0 0 C1.5078125 1.2890625 1.5078125 1.2890625 3 3 C2.73606495 10.12624636 0.6741263 17.09291288 -1 24 C-1.99 23.67 -2.98 23.34 -4 23 C-3.20736384 15.23216563 -1.58110513 7.6370361 0 0 Z " fill="#4B4733" transform="translate(294,182)"/>
<path d="M0 0 C1.98 0.66 3.96 1.32 6 2 C6 2.66 6 3.32 6 4 C6.99 4.33 7.98 4.66 9 5 C10.35368596 6.31266518 11.68799596 7.64567325 13 9 C13.66 9.33 14.32 9.66 15 10 C15 10.66 15 11.32 15 12 C15.66 12 16.32 12 17 12 C17 12.66 17 13.32 17 14 C16.01 14.33 15.02 14.66 14 15 C11.84773847 13.06925078 9.70322649 11.13096583 7.5625 9.1875 C6.95083984 8.64029297 6.33917969 8.09308594 5.70898438 7.52929688 C5.12568359 6.99755859 4.54238281 6.46582031 3.94140625 5.91796875 C3.40201416 5.43094482 2.86262207 4.9439209 2.30688477 4.44213867 C1 3 1 3 0 0 Z " fill="#3F3C29" transform="translate(21,224)"/>
<path d="M0 0 C1.51171875 1.33984375 1.51171875 1.33984375 3 3 C2.8125 5.5625 2.8125 5.5625 2 9 C1.68570068 10.66632829 1.37333499 12.33302201 1.0625 14 C0.30286758 17.78102752 -0.66411827 21.37403529 -2 25 C-2.33 25 -2.66 25 -3 25 C-3.46112386 16.39235455 -1.72848437 8.38520694 0 0 Z " fill="#2B2920" transform="translate(298,162)"/>
<path d="M0 0 C-18.34981442 7.54679215 -18.34981442 7.54679215 -24 7 C-20.10345177 1.15517766 -11.7296219 0.61001602 -5.1640625 -0.765625 C-3 -1 -3 -1 0 0 Z " fill="#38362B" transform="translate(101,39)"/>
<path d="M0 0 C0.99 0.33 1.98 0.66 3 1 C2.54034292 8.30696249 1.11670277 14.99757448 -1 22 C-1.33 22 -1.66 22 -2 22 C-2.29883729 14.52906777 -1.15925507 7.36955011 0 0 Z " fill="#322F1F" transform="translate(308,111)"/>
<path d="M0 0 C1.51171875 1.23046875 1.51171875 1.23046875 3 3 C3.35982744 8.10565957 1.8156648 13.27927152 0 18 C-0.66 17.67 -1.32 17.34 -2 17 C-2.21824777 10.9981863 -1.5056904 5.80766296 0 0 Z " fill="#474433" transform="translate(282,241)"/>
<path d="M0 0 C0.99 0.66 1.98 1.32 3 2 C2.86722656 2.65226563 2.73445313 3.30453125 2.59765625 3.9765625 C1.65517178 8.6408287 0.74231297 13.29868454 0 18 C-0.99 17.67 -1.98 17.34 -3 17 C-2.36934845 11.2190275 -1.34844868 5.6556294 0 0 Z " fill="#434033" transform="translate(23,137)"/>
<path d="M0 0 C1.546875 1.19921875 1.546875 1.19921875 3 3 C2.890625 5.26953125 2.890625 5.26953125 2.25 7.8125 C1.93675781 9.13314453 1.93675781 9.13314453 1.6171875 10.48046875 C1.31167969 11.72763672 1.31167969 11.72763672 1 13 C0.65549886 14.99810662 0.31622777 16.99722415 0 19 C-0.99 18.67 -1.98 18.34 -3 18 C-2.32418477 11.91766294 -1.26361972 5.98685848 0 0 Z " fill="#474436" transform="translate(33,87)"/>
<path d="M0 0 C0.99 0.66 1.98 1.32 3 2 C2.71861942 4.29295236 2.4245814 6.58435456 2.125 8.875 C1.88136719 10.78925781 1.88136719 10.78925781 1.6328125 12.7421875 C1 16 1 16 -1 18 C-2.20287276 11.50448709 -1.58444052 6.39014027 0 0 Z " fill="#3D3B30" transform="translate(305,129)"/>
<path d="M0 0 C-18.34981442 7.54679215 -18.34981442 7.54679215 -24 7 C-17.9239007 2.94926713 -7.24058309 -2.4135277 0 0 Z " fill="#282515" transform="translate(158,20)"/>
<path d="M0 0 C0.33 0 0.66 0 1 0 C0.88521587 2.06309376 0.75773802 4.12548354 0.625 6.1875 C0.55539062 7.33605469 0.48578125 8.48460937 0.4140625 9.66796875 C0.02490426 12.79959117 -0.6809851 15.15285809 -2 18 C-2.33 18 -2.66 18 -3 18 C-3.37634203 11.19796625 -2.77471079 6.24309927 0 0 Z " fill="#27261E" transform="translate(13,191)"/>
<path d="M0 0 C2 2 2 2 2.1875 5.3125 C2.03317813 8.34749675 1.71340141 11.05721919 1 14 C-0.32 14.33 -1.64 14.66 -3 15 C-3.33 14.01 -3.66 13.02 -4 12 C-3.34 11.67 -2.68 11.34 -2 11 C-1.30906104 8.42048126 -1.30906104 8.42048126 -0.875 5.4375 C-0.70742188 4.42558594 -0.53984375 3.41367187 -0.3671875 2.37109375 C-0.24601562 1.58863281 -0.12484375 0.80617188 0 0 Z " fill="#3C3927" transform="translate(279,256)"/>
<path d="M0 0 C0.44730469 0.39832031 0.89460938 0.79664063 1.35546875 1.20703125 C4.74779939 4.17984125 8.01840224 6.8282194 12 9 C10.02 9.99 10.02 9.99 8 11 C6.65499045 9.93119777 5.32428562 8.84437492 4 7.75 C3.2575 7.14671875 2.515 6.5434375 1.75 5.921875 C0 4 0 4 0 0 Z " fill="#43402D" transform="translate(105,297)"/>
<path d="M0 0 C-0.33 1.32 -0.66 2.64 -1 4 C-7.75 5.125 -7.75 5.125 -10 4 C-11.32860925 3.64830932 -12.66158328 3.31229724 -14 3 C-12.04486839 2.303447 -10.08577524 1.61800435 -8.125 0.9375 C-7.03445312 0.55464844 -5.94390625 0.17179687 -4.8203125 -0.22265625 C-2 -1 -2 -1 0 0 Z " fill="#716C50" transform="translate(54,53)"/>
<path d="M0 0 C-1.32 0.33 -2.64 0.66 -4 1 C-3.67 1.99 -3.34 2.98 -3 4 C-7.75 5.125 -7.75 5.125 -10 4 C-12.3400417 4.28241883 -14.67504723 4.61250787 -17 5 C-13.97546033 2.98364022 -11.36924652 1.96753498 -7.9375 0.8125 C-6.87402344 0.44769531 -5.81054688 0.08289062 -4.71484375 -0.29296875 C-2 -1 -2 -1 0 0 Z " fill="#686553" transform="translate(108,35)"/>
<path d="M0 0 C-3.74525799 3.74525799 -7.98270909 3.68909949 -13 4 C-13 3.34 -13 2.68 -13 2 C-11.5882217 1.46605821 -10.17029756 0.94834896 -8.75 0.4375 C-7.96109375 0.14746094 -7.1721875 -0.14257812 -6.359375 -0.44140625 C-3.80896548 -1.04522837 -2.44677771 -0.8473932 0 0 Z " fill="#3B382A" transform="translate(228,286)"/>
<path d="M0 0 C4.20626034 1.50223584 5.73900021 4.28550034 8 8 C2.69520066 8 1.81017373 6.4637943 -2 3 C-1.34 2.67 -0.68 2.34 0 2 C0 1.34 0 0.68 0 0 Z " fill="#444233" transform="translate(301,103)"/>
<path d="M0 0 C-1 2 -1 2 -2.92578125 2.8515625 C-4.10720703 3.23441406 -4.10720703 3.23441406 -5.3125 3.625 C-6.09238281 3.88539063 -6.87226563 4.14578125 -7.67578125 4.4140625 C-10 5 -10 5 -14 5 C-14 4.34 -14 3.68 -14 3 C-4.58997722 -0.44419134 -4.58997722 -0.44419134 0 0 Z " fill="#2E2B1D" transform="translate(277,269)"/>
<path d="M0 0 C0.66 0 1.32 0 2 0 C1.67 4.29 1.34 8.58 1 13 C0.01 13.33 -0.98 13.66 -2 14 C-1.43393721 9.30976546 -0.81462495 4.65499974 0 0 Z " fill="#2C2817" transform="translate(287,217)"/>
<path d="M0 0 C4.74996912 0.70369913 7.70531276 3.70531276 11 7 C10.34 7 9.68 7 9 7 C8.67 7.66 8.34 8.32 8 9 C6.66079162 7.88200014 5.32877444 6.75538103 4 5.625 C2.88625 4.68527344 2.88625 4.68527344 1.75 3.7265625 C1.1725 3.15679687 0.595 2.58703125 0 2 C0 1.34 0 0.68 0 0 Z " fill="#373428" transform="translate(36,238)"/>
<path d="M0 0 C0.33 0 0.66 0 1 0 C1.21755666 5.4389165 1.10428384 9.87080814 -1 15 C-1.33 15 -1.66 15 -2 15 C-2.19392201 9.47322267 -1.7479503 5.24385089 0 0 Z " fill="#1F1E16" transform="translate(36,77)"/>
<path d="M0 0 C-2.36453193 2.36453193 -3.25869929 2.36652704 -6.5 2.6875 C-7.2940625 2.77386719 -8.088125 2.86023438 -8.90625 2.94921875 C-11 3 -11 3 -13 2 C-8.11922548 -0.44038726 -5.47332932 -1.46845421 0 0 Z " fill="#4C482D" transform="translate(145,314)"/>
<path d="M0 0 C-2 3 -2 3 -4.1640625 3.51171875 C-5.38222656 3.59873047 -5.38222656 3.59873047 -6.625 3.6875 C-7.44226563 3.75324219 -8.25953125 3.81898438 -9.1015625 3.88671875 C-9.72804687 3.92410156 -10.35453125 3.96148437 -11 4 C-7.95841042 -0.56238437 -5.1474794 -0.11438843 0 0 Z " fill="#3F3C2A" transform="translate(196,296)"/>
<path d="M0 0 C-1.56020867 0.65134925 -3.12328579 1.29582964 -4.6875 1.9375 C-5.55761719 2.29714844 -6.42773438 2.65679687 -7.32421875 3.02734375 C-9.88179265 3.9570312 -12.3221323 4.54162625 -15 5 C-15 4.34 -15 3.68 -15 3 C-3 -1 -3 -1 0 0 Z " fill="#292616" transform="translate(119,33)"/>
<path d="M0 0 C3.98175544 2.10148204 6.35039045 4.36905358 9 8 C5.81390075 7.64598897 4.20933322 7.16972964 1.6875 5.125 C0 3 0 3 0 0 Z " fill="#323027" transform="translate(114,306)"/>
<path d="M0 0 C4.37977021 0.36498085 6.8352851 2.01612595 10 5 C10 5.66 10 6.32 10 7 C6.6496302 6.42235003 5.31766228 5.41423154 3 3 C0.90010348 1.82425289 0.90010348 1.82425289 -1 1 C-0.67 0.67 -0.34 0.34 0 0 Z " fill="#22211A" transform="translate(189,7)"/>
<path d="M0 0 C0.33 0 0.66 0 1 0 C1.16682272 4.92127034 1.24828052 8.50343896 -1 13 C-1.33 13 -1.66 13 -2 13 C-2.16682272 8.07872966 -2.24828052 4.49656104 0 0 Z " fill="#1E1D17" transform="translate(31,102)"/>
<path d="M0 0 C0.33 0.66 0.66 1.32 1 2 C-0.74784829 2.36463732 -2.49840502 2.7163078 -4.25 3.0625 C-5.71179688 3.35833984 -5.71179688 3.35833984 -7.203125 3.66015625 C-9.868119 3.98397535 -11.48871723 3.85503199 -14 3 C-12.04486839 2.303447 -10.08577524 1.61800435 -8.125 0.9375 C-7.03445312 0.55464844 -5.94390625 0.17179687 -4.8203125 -0.22265625 C-2 -1 -2 -1 0 0 Z " fill="#52514B" transform="translate(162,17)"/>
<path d="M0 0 C0.53625 0.37125 1.0725 0.7425 1.625 1.125 C-1.29265 3.0701 -3.00037285 3.57776317 -6.375 4.125 C-7.035 3.135 -7.695 2.145 -8.375 1.125 C-2.95961538 -1.09038462 -2.95961538 -1.09038462 0 0 Z " fill="#545038" transform="translate(186.375,298.875)"/>
<path d="M0 0 C2.88437779 1.29299694 4.87219421 2.65941363 7 5 C6.67 5.99 6.34 6.98 6 8 C3.69 6.02 1.38 4.04 -1 2 C-0.67 1.34 -0.34 0.68 0 0 Z " fill="#36352D" transform="translate(98,292)"/>
<path d="M0 0 C1.32 0.66 2.64 1.32 4 2 C4 2.66 4 3.32 4 4 C4.66 4 5.32 4 6 4 C6 4.66 6 5.32 6 6 C5.01 6.33 4.02 6.66 3 7 C1.35 5.35 -0.3 3.7 -2 2 C-1.34 2 -0.68 2 0 2 C0 1.34 0 0.68 0 0 Z " fill="#504B2F" transform="translate(32,232)"/>
<path d="M0 0 C0.33 0 0.66 0 1 0 C0.88610125 1.79240663 0.75852313 3.58394835 0.625 5.375 C0.52058594 6.87160156 0.52058594 6.87160156 0.4140625 8.3984375 C0 11 0 11 -2 13 C-2.16682272 8.07872966 -2.24828052 4.49656104 0 0 Z " fill="#16150F" transform="translate(308,120)"/>
<path d="M0 0 C2.16874252 0.50603992 3.99967627 0.99983813 6 2 C6 2.66 6 3.32 6 4 C6.66 4 7.32 4 8 4 C8 4.66 8 5.32 8 6 C4.65750371 5.40312566 2.53563658 4.26396123 0 2 C0 1.34 0 0.68 0 0 Z " fill="#312E20" transform="translate(236,48)"/>
<path d="M0 0 C3.34019306 0.59646305 5.50470633 1.68294159 8 4 C8 4.99 8 5.98 8 7 C5.05043472 5.63055898 2.47531189 4.12169591 0 2 C0 1.34 0 0.68 0 0 Z " fill="#28251A" transform="translate(209,24)"/>
<path d="M0 0 C2.97 1.98 2.97 1.98 6 4 C5.01 4.66 4.02 5.32 3 6 C1.35 4.35 -0.3 2.7 -2 1 C-1.34 0.67 -0.68 0.34 0 0 Z " fill="#3E3C2E" transform="translate(81,276)"/>
<path d="M0 0 C0.99 0.99 1.98 1.98 3 3 C2.6875 6.1875 2.6875 6.1875 2 9 C1.01 9.33 0.02 9.66 -1 10 C-0.67 6.7 -0.34 3.4 0 0 Z " fill="#565138" transform="translate(298,162)"/>
<path d="M0 0 C-0.99 1.485 -0.99 1.485 -2 3 C-5.125 3.1875 -5.125 3.1875 -8 3 C-8 2.34 -8 1.68 -8 1 C-5.07175348 0.02391783 -3.04386724 -0.08226668 0 0 Z " fill="#373424" transform="translate(151,311)"/>
<path d="M0 0 C-2.91765 1.9451 -4.62537285 2.45276317 -8 3 C-8.33 2.01 -8.66 1.02 -9 0 C-5.52176885 -1.15941038 -3.54104422 -0.70820884 0 0 Z " fill="#4D4A3B" transform="translate(158,310)"/>
<path d="M0 0 C-2.91765 1.9451 -4.62537285 2.45276317 -8 3 C-8.33 2.01 -8.66 1.02 -9 0 C-5.52176885 -1.15941038 -3.54104422 -0.70820884 0 0 Z " fill="#4E4B3E" transform="translate(218,290)"/>
<path d="M0 0 C3.36720387 1.39332574 4.9859524 2.9789286 7 6 C3.75728494 5.4409112 2.06942576 4.5867822 0 2 C0 1.34 0 0.68 0 0 Z " fill="#211F17" transform="translate(280,86)"/>
<path d="M0 0 C-0.598125 0.268125 -1.19625 0.53625 -1.8125 0.8125 C-3.97224808 1.98493467 -5.35790256 3.19369282 -7 5 C-7 3.35 -7 1.7 -7 0 C-3.98968256 -0.93423645 -3.13349732 -1.04449911 0 0 Z " fill="#221F12" transform="translate(47,57)"/>
</svg>
